<svg xmlns="http://www.w3.org/2000/svg" xmlns:xlink="http://www.w3.org/1999/xlink" style="margin:auto;background:transparent;display:block;" width="200px" height="200px" viewBox="0 0 100 100" preserveAspectRatio="xMidYMid">
 <g transform="translate(50 50)">  <g transform="translate(-19 -19) scale(0.6)"> <g>
<animateTransform attributeName="transform" type="rotate" values="0;30" keyTimes="0;1" dur="0.6097560975609756s" begin="0s" repeatCount="indefinite"></animateTransform><path d="M31.35997276079435 21.46047782418268 L37.01682701028673 27.11733207367506 L27.11733207367506 37.016827010286725 L21.46047782418268 31.359972760794346 A38 38 0 0 1 16.42829416074459 34.26530535349197 L16.42829416074459 34.26530535349197 L18.498846521564754 41.99271196380451 L4.975884953517797 45.6161785952398 L2.90533259269763 37.88877198492726 A38 38 0 0 1 -2.905332592697617 37.88877198492726 L-2.905332592697617 37.88877198492726 L-4.975884953517781 45.61617859523981 L-18.498846521564737 41.992711963804524 L-16.42829416074457 34.265305353491975 A38 38 0 0 1 -21.46047782418268 31.35997276079435 L-21.46047782418268 31.35997276079435 L-27.11733207367506 37.01682701028673 L-37.016827010286725 27.117332073675062 L-31.359972760794346 21.460477824182682 A38 38 0 0 1 -34.26530535349197 16.428294160744592 L-34.26530535349197 16.428294160744592 L-41.99271196380451 18.49884652156476 L-45.6161785952398 4.9758849535178005 L-37.88877198492726 2.9053325926976323 A38 38 0 0 1 -37.88877198492726 -2.9053325926976066 L-37.88877198492726 -2.9053325926976066 L-45.61617859523981 -4.97588495351777 L-41.992711963804524 -18.49884652156473 L-34.265305353491975 -16.428294160744567 A38 38 0 0 1 -31.35997276079435 -21.460477824182675 L-31.35997276079435 -21.460477824182675 L-37.01682701028673 -27.11733207367505 L-27.117332073675083 -37.01682701028671 L-21.4604778241827 -31.35997276079433 A38 38 0 0 1 -16.428294160744564 -34.26530535349198 L-16.428294160744564 -34.26530535349198 L-18.49884652156473 -41.99271196380453 L-4.9758849535178 -45.61617859523981 L-2.9053325926976346 -37.88877198492726 A38 38 0 0 1 2.905332592697621 -37.88877198492726 L2.905332592697621 -37.88877198492726 L4.975884953517783 -45.61617859523981 L18.49884652156471 -41.99271196380453 L16.42829416074455 -34.26530535349198 A38 38 0 0 1 21.460477824182686 -31.359972760794342 L21.460477824182686 -31.359972760794342 L27.117332073675065 -37.016827010286725 L37.01682701028671 -27.11733207367508 L31.35997276079433 -21.4604778241827 A38 38 0 0 1 34.26530535349196 -16.428294160744596 L34.26530535349196 -16.428294160744596 L41.9927119638045 -18.49884652156477 L45.6161785952398 -4.975884953517843 L37.88877198492726 -2.905332592697671 A38 38 0 0 1 37.88877198492726 2.9053325926976186 L37.88877198492726 2.9053325926976186 L45.61617859523981 4.975884953517781 L41.99271196380454 18.49884652156471 L34.26530535349199 16.42829416074455 A38 38 0 0 1 31.359972760794346 21.460477824182682 M0 -13A13 13 0 1 0 0 13 A13 13 0 1 0 0 -13" fill="#e6812a"></path></g></g> <g transform="translate(19 19) scale(0.6)"> <g>
<animateTransform attributeName="transform" type="rotate" values="30;0" keyTimes="0;1" dur="0.6097560975609756s" begin="-0.3048780487804878s" repeatCount="indefinite"></animateTransform><path d="M-31.35997276079435 -21.460477824182675 L-37.01682701028673 -27.11733207367505 L-27.117332073675083 -37.01682701028671 L-21.4604778241827 -31.35997276079433 A38 38 0 0 1 -16.428294160744564 -34.26530535349198 L-16.428294160744564 -34.26530535349198 L-18.49884652156473 -41.99271196380453 L-4.9758849535178 -45.61617859523981 L-2.9053325926976346 -37.88877198492726 A38 38 0 0 1 2.905332592697621 -37.88877198492726 L2.905332592697621 -37.88877198492726 L4.975884953517783 -45.61617859523981 L18.49884652156471 -41.99271196380453 L16.42829416074455 -34.26530535349198 A38 38 0 0 1 21.460477824182686 -31.359972760794342 L21.460477824182686 -31.359972760794342 L27.117332073675065 -37.016827010286725 L37.01682701028671 -27.11733207367508 L31.35997276079433 -21.4604778241827 A38 38 0 0 1 34.26530535349198 -16.428294160744564 L34.26530535349198 -16.428294160744564 L41.992711963804524 -18.49884652156473 L45.6161785952398 -4.975884953517802 L37.88877198492726 -2.905332592697637 A38 38 0 0 1 37.88877198492726 2.9053325926976186 L37.88877198492726 2.9053325926976186 L45.61617859523981 4.975884953517781 L41.99271196380454 18.49884652156471 L34.26530535349199 16.42829416074455 A38 38 0 0 1 31.359972760794346 21.460477824182682 L31.359972760794346 21.460477824182682 L37.01682701028673 27.11733207367506 L27.117332073675087 37.01682701028671 L21.460477824182703 31.35997276079433 A38 38 0 0 1 16.428294160744567 34.265305353491975 L16.428294160744567 34.265305353491975 L18.498846521564733 41.992711963804524 L4.975884953517806 45.6161785952398 L2.905332592697639 37.88877198492726 A38 38 0 0 1 -2.905332592697616 37.88877198492726 L-2.905332592697616 37.88877198492726 L-4.975884953517781 45.61617859523981 L-18.49884652156474 41.99271196380452 L-16.428294160744574 34.26530535349197 A38 38 0 0 1 -21.46047782418263 31.359972760794385 L-21.46047782418263 31.359972760794385 L-27.117332073675 37.016827010286775 L-37.016827010286704 27.11733207367509 L-31.359972760794328 21.460477824182703 A38 38 0 0 1 -34.26530535349193 16.42829416074466 L-34.26530535349193 16.42829416074466 L-41.992711963804474 18.49884652156484 L-45.6161785952398 4.9758849535178555 L-37.88877198492726 2.9053325926976754 A38 38 0 0 1 -37.88877198492727 -2.90533259269758 L-37.88877198492727 -2.90533259269758 L-45.616178595239816 -4.97588495351774 L-41.992711963804524 -18.498846521564737 L-34.265305353491975 -16.428294160744574 A38 38 0 0 1 -31.359972760794346 -21.460477824182682 M0 -13A13 13 0 1 0 0 13 A13 13 0 1 0 0 -13" fill="#e6812a"></path></g></g></g>
</svg>