<svg width="199.843" height="199.843" viewBox="0 0 52.875 52.875" xmlns="http://www.w3.org/2000/svg"><g aria-label="Finance Manager" style="font-size:20.6375px;line-height:1.25;font-family:Ubuntu;-inkscape-font-specification:Ubuntu;fill:#e6812a;fill-opacity:1;stroke-width:.264583" transform="translate(-42.49 -.432)"><rect class="logo-wrapper" style="fill:#e6812a;fill-rule:evenodd;stroke:none;stroke-width:.041492" width="52.875" height="52.875" x="42.49" y=".432" ry="10.7"/><g style="font-size:31.75px;stroke-width:.0700043"><g class="logo-text" aria-label="fm" style="font-size:29.1042px;stroke-width:.018522"><path d="M58.738 15.847q1.223 0 2.241.262 1.019.233 1.572.466l-.844 3.463q-.582-.262-1.28-.378-.67-.146-1.252-.146-.786 0-1.339.233-.524.204-.844.582-.291.378-.436.902-.117.524-.117 1.135v.757h5.355v3.609H56.44v11.7h-4.336V22.308q0-2.969 1.659-4.715 1.688-1.746 4.976-1.746zM72.796 30.312q0-2.096-.553-2.969-.524-.873-1.834-.873-.407 0-.844.058-.436.03-.844.087v11.817h-4.336V23.647q.553-.146 1.28-.291.757-.175 1.572-.291.844-.146 1.717-.204.873-.087 1.717-.087 1.659 0 2.678.436 1.047.408 1.717.99.931-.67 2.124-1.048 1.223-.378 2.241-.378 1.834 0 2.998.524 1.193.494 1.892 1.426.698.931.96 2.212.262 1.28.262 2.852v8.644h-4.336v-8.12q0-2.096-.553-2.969-.524-.873-1.834-.873-.349 0-.99.175-.61.174-1.018.436.204.67.262 1.426.058.728.058 1.572v8.353h-4.336z" style="font-weight:700;-inkscape-font-specification:'Ubuntu Bold';fill:#fff"/></g></g></g></svg>